<?xml version="1.0" encoding="UTF-8" standalone="no"?>
<!DOCTYPE svg PUBLIC "-//W3C//DTD SVG 1.1//EN"
 "http://www.w3.org/Graphics/SVG/1.1/DTD/svg11.dtd">
<!-- Generated by graphviz version 2.40.1 (20161225.0304)
 -->
<!-- Title: dependencies Pages: 1 -->
<svg width="1292pt" height="211pt"
 viewBox="0.00 0.00 1292.00 211.00" xmlns="http://www.w3.org/2000/svg" xmlns:xlink="http://www.w3.org/1999/xlink">
<g id="graph0" class="graph" transform="scale(1 1) rotate(0) translate(4 207)">
<title>dependencies</title>
<polygon fill="#ffffff" stroke="transparent" points="-4,4 -4,-207 1288,-207 1288,4 -4,4"/>
<text text-anchor="start" x="621.0091" y="-42.4" font-family="sans-serif" font-weight="bold" font-size="14.00" fill="#000000">Legend</text>
<polygon fill="#ffffb3" stroke="transparent" points="408,-10 408,-30 428,-30 428,-10 408,-10"/>
<text text-anchor="start" x="431.629" y="-15.4" font-family="sans-serif" font-size="14.00" fill="#000000"> &#160;Declarations</text>
<polygon fill="#8dd3c7" stroke="transparent" points="521,-10 521,-30 541,-30 541,-10 521,-10"/>
<text text-anchor="start" x="544.7251" y="-15.4" font-family="sans-serif" font-size="14.00" fill="#000000"> &#160;Module</text>
<polygon fill="#80b1d3" stroke="transparent" points="607,-10 607,-30 627,-30 627,-10 607,-10"/>
<text text-anchor="start" x="630.7812" y="-15.4" font-family="sans-serif" font-size="14.00" fill="#000000"> &#160;Bootstrap</text>
<polygon fill="#fdb462" stroke="transparent" points="704,-10 704,-30 724,-30 724,-10 704,-10"/>
<text text-anchor="start" x="727.6732" y="-15.4" font-family="sans-serif" font-size="14.00" fill="#000000"> &#160;Providers</text>
<polygon fill="#fb8072" stroke="transparent" points="800,-10 800,-30 820,-30 820,-10 800,-10"/>
<text text-anchor="start" x="823.7258" y="-15.4" font-family="sans-serif" font-size="14.00" fill="#000000"> &#160;Exports</text>
<g id="clust1" class="cluster">
<title>cluster_TkWorkspaceModule</title>
<polygon fill="none" stroke="#000000" stroke-dasharray="1,5" points="8,-70 8,-195 1276,-195 1276,-70 8,-70"/>
</g>
<g id="clust2" class="cluster">
<title>cluster_TkWorkspaceModule_declarations</title>
<polygon fill="none" stroke="#000000" points="16,-78 16,-130 1268,-130 1268,-78 16,-78"/>
</g>
<!-- TkGenomicsInfoComponent -->
<g id="node1" class="node">
<title>TkGenomicsInfoComponent</title>
<polygon fill="#ffffb3" stroke="#000000" points="1260.4678,-122 1083.5322,-122 1083.5322,-86 1260.4678,-86 1260.4678,-122"/>
<text text-anchor="middle" x="1172" y="-99.8" font-family="Times,serif" font-size="14.00" fill="#000000">TkGenomicsInfoComponent</text>
</g>
<!-- TkWorkspaceModule -->
<g id="node7" class="node">
<title>TkWorkspaceModule</title>
<polygon fill="#8dd3c7" stroke="#000000" points="724.066,-187 721.066,-191 700.066,-191 697.066,-187 585.934,-187 585.934,-151 724.066,-151 724.066,-187"/>
<text text-anchor="middle" x="655" y="-164.8" font-family="Times,serif" font-size="14.00" fill="#000000">TkWorkspaceModule</text>
</g>
<!-- TkGenomicsInfoComponent&#45;&gt;TkWorkspaceModule -->
<g id="edge1" class="edge">
<title>TkGenomicsInfoComponent&#45;&gt;TkWorkspaceModule</title>
<path fill="none" stroke="#000000" d="M1172,-122.2843C1172,-143.3211 1172,-175 1172,-175 1172,-175 734.1885,-175 734.1885,-175"/>
<polygon fill="#000000" stroke="#000000" points="734.1885,-171.5001 724.1885,-175 734.1884,-178.5001 734.1885,-171.5001"/>
</g>
<!-- TkGenomicsMatrixComponent -->
<g id="node2" class="node">
<title>TkGenomicsMatrixComponent</title>
<polygon fill="#ffffb3" stroke="#000000" points="1065.7478,-122 874.2522,-122 874.2522,-86 1065.7478,-86 1065.7478,-122"/>
<text text-anchor="middle" x="970" y="-99.8" font-family="Times,serif" font-size="14.00" fill="#000000">TkGenomicsMatrixComponent</text>
</g>
<!-- TkGenomicsMatrixComponent&#45;&gt;TkWorkspaceModule -->
<g id="edge2" class="edge">
<title>TkGenomicsMatrixComponent&#45;&gt;TkWorkspaceModule</title>
<path fill="none" stroke="#000000" d="M970,-122.0225C970,-139.3734 970,-163 970,-163 970,-163 734.1281,-163 734.1281,-163"/>
<polygon fill="#000000" stroke="#000000" points="734.1281,-159.5001 724.1281,-163 734.1281,-166.5001 734.1281,-159.5001"/>
</g>
<!-- TkGenomicsSpatialComponent -->
<g id="node3" class="node">
<title>TkGenomicsSpatialComponent</title>
<polygon fill="#ffffb3" stroke="#000000" points="856.0308,-122 663.9692,-122 663.9692,-86 856.0308,-86 856.0308,-122"/>
<text text-anchor="middle" x="760" y="-99.8" font-family="Times,serif" font-size="14.00" fill="#000000">TkGenomicsSpatialComponent</text>
</g>
<!-- TkGenomicsSpatialComponent&#45;&gt;TkWorkspaceModule -->
<g id="edge3" class="edge">
<title>TkGenomicsSpatialComponent&#45;&gt;TkWorkspaceModule</title>
<path fill="none" stroke="#000000" d="M693.884,-122.1061C693.884,-122.1061 693.884,-140.991 693.884,-140.991"/>
<polygon fill="#000000" stroke="#000000" points="690.384,-140.9909 693.884,-150.991 697.384,-140.991 690.384,-140.9909"/>
</g>
<!-- TkGenomicsTracksComponent -->
<g id="node4" class="node">
<title>TkGenomicsTracksComponent</title>
<polygon fill="#ffffb3" stroke="#000000" points="645.7338,-122 454.2662,-122 454.2662,-86 645.7338,-86 645.7338,-122"/>
<text text-anchor="middle" x="550" y="-99.8" font-family="Times,serif" font-size="14.00" fill="#000000">TkGenomicsTracksComponent</text>
</g>
<!-- TkGenomicsTracksComponent&#45;&gt;TkWorkspaceModule -->
<g id="edge4" class="edge">
<title>TkGenomicsTracksComponent&#45;&gt;TkWorkspaceModule</title>
<path fill="none" stroke="#000000" d="M615.9169,-122.1061C615.9169,-122.1061 615.9169,-140.991 615.9169,-140.991"/>
<polygon fill="#000000" stroke="#000000" points="612.417,-140.9909 615.9169,-150.991 619.417,-140.991 612.417,-140.9909"/>
</g>
<!-- TkWorkspaceComponent -->
<g id="node5" class="node">
<title>TkWorkspaceComponent</title>
<polygon fill="#ffffb3" stroke="#000000" points="435.8487,-122 276.1513,-122 276.1513,-86 435.8487,-86 435.8487,-122"/>
<text text-anchor="middle" x="356" y="-99.8" font-family="Times,serif" font-size="14.00" fill="#000000">TkWorkspaceComponent</text>
</g>
<!-- TkWorkspaceComponent&#45;&gt;TkWorkspaceModule -->
<g id="edge5" class="edge">
<title>TkWorkspaceComponent&#45;&gt;TkWorkspaceModule</title>
<path fill="none" stroke="#000000" d="M356,-122.0225C356,-139.3734 356,-163 356,-163 356,-163 575.6519,-163 575.6519,-163"/>
<polygon fill="#000000" stroke="#000000" points="575.6519,-166.5001 585.6519,-163 575.6518,-159.5001 575.6519,-166.5001"/>
</g>
<!-- WorkspaceWidgetSpawnerComponent -->
<g id="node6" class="node">
<title>WorkspaceWidgetSpawnerComponent</title>
<polygon fill="#ffffb3" stroke="#000000" points="258.4859,-122 23.5141,-122 23.5141,-86 258.4859,-86 258.4859,-122"/>
<text text-anchor="middle" x="141" y="-99.8" font-family="Times,serif" font-size="14.00" fill="#000000">WorkspaceWidgetSpawnerComponent</text>
</g>
<!-- WorkspaceWidgetSpawnerComponent&#45;&gt;TkWorkspaceModule -->
<g id="edge6" class="edge">
<title>WorkspaceWidgetSpawnerComponent&#45;&gt;TkWorkspaceModule</title>
<path fill="none" stroke="#000000" d="M141,-122.2843C141,-143.3211 141,-175 141,-175 141,-175 575.9465,-175 575.9465,-175"/>
<polygon fill="#000000" stroke="#000000" points="575.9466,-178.5001 585.9465,-175 575.9465,-171.5001 575.9466,-178.5001"/>
</g>
</g>
</svg>
