<?xml version="1.0" encoding="UTF-8" standalone="no"?>
<!DOCTYPE svg PUBLIC "-//W3C//DTD SVG 1.1//EN"
 "http://www.w3.org/Graphics/SVG/1.1/DTD/svg11.dtd">
<!-- Generated by graphviz version 2.40.1 (20161225.0304)
 -->
<!-- Title: dependencies Pages: 1 -->
<svg width="966pt" height="284pt"
 viewBox="0.00 0.00 966.00 284.00" xmlns="http://www.w3.org/2000/svg" xmlns:xlink="http://www.w3.org/1999/xlink">
<g id="graph0" class="graph" transform="scale(1 1) rotate(0) translate(4 280)">
<title>dependencies</title>
<polygon fill="#ffffff" stroke="transparent" points="-4,4 -4,-280 962,-280 962,4 -4,4"/>
<text text-anchor="start" x="458.0091" y="-42.4" font-family="sans-serif" font-weight="bold" font-size="14.00" fill="#000000">Legend</text>
<polygon fill="#ffffb3" stroke="transparent" points="245,-10 245,-30 265,-30 265,-10 245,-10"/>
<text text-anchor="start" x="268.629" y="-15.4" font-family="sans-serif" font-size="14.00" fill="#000000"> &#160;Declarations</text>
<polygon fill="#8dd3c7" stroke="transparent" points="358,-10 358,-30 378,-30 378,-10 358,-10"/>
<text text-anchor="start" x="381.7251" y="-15.4" font-family="sans-serif" font-size="14.00" fill="#000000"> &#160;Module</text>
<polygon fill="#80b1d3" stroke="transparent" points="444,-10 444,-30 464,-30 464,-10 444,-10"/>
<text text-anchor="start" x="467.7812" y="-15.4" font-family="sans-serif" font-size="14.00" fill="#000000"> &#160;Bootstrap</text>
<polygon fill="#fdb462" stroke="transparent" points="541,-10 541,-30 561,-30 561,-10 541,-10"/>
<text text-anchor="start" x="564.6732" y="-15.4" font-family="sans-serif" font-size="14.00" fill="#000000"> &#160;Providers</text>
<polygon fill="#fb8072" stroke="transparent" points="637,-10 637,-30 657,-30 657,-10 637,-10"/>
<text text-anchor="start" x="660.7258" y="-15.4" font-family="sans-serif" font-size="14.00" fill="#000000"> &#160;Exports</text>
<g id="clust1" class="cluster">
<title>cluster_TkProjectsModule</title>
<polygon fill="none" stroke="#000000" stroke-dasharray="1,5" points="8,-70 8,-268 950,-268 950,-70 8,-70"/>
</g>
<g id="clust2" class="cluster">
<title>cluster_TkProjectsModule_declarations</title>
<polygon fill="none" stroke="#000000" points="25,-78 25,-130 934,-130 934,-78 25,-78"/>
</g>
<g id="clust9" class="cluster">
<title>cluster_TkProjectsModule_exports</title>
<polygon fill="none" stroke="#000000" points="16,-208 16,-260 942,-260 942,-208 16,-208"/>
</g>
<!-- TkProjectBriefComponent -->
<g id="node1" class="node">
<title>TkProjectBriefComponent</title>
<polygon fill="#ffffb3" stroke="#000000" points="925.8019,-122 760.1981,-122 760.1981,-86 925.8019,-86 925.8019,-122"/>
<text text-anchor="middle" x="843" y="-99.8" font-family="Times,serif" font-size="14.00" fill="#000000">TkProjectBriefComponent</text>
</g>
<!-- TkProjectsModule -->
<g id="node6" class="node">
<title>TkProjectsModule</title>
<polygon fill="#8dd3c7" stroke="#000000" points="523.2008,-187 520.2008,-191 499.2008,-191 496.2008,-187 402.7992,-187 402.7992,-151 523.2008,-151 523.2008,-187"/>
<text text-anchor="middle" x="463" y="-164.8" font-family="Times,serif" font-size="14.00" fill="#000000">TkProjectsModule</text>
</g>
<!-- TkProjectBriefComponent&#45;&gt;TkProjectsModule -->
<g id="edge1" class="edge">
<title>TkProjectBriefComponent&#45;&gt;TkProjectsModule</title>
<path fill="none" stroke="#000000" d="M872.3003,-122.2667C872.3003,-140.5552 872.3003,-166 872.3003,-166 872.3003,-166 533.3937,-166 533.3937,-166"/>
<polygon fill="#000000" stroke="#000000" points="533.3937,-162.5001 523.3937,-166 533.3936,-169.5001 533.3937,-162.5001"/>
</g>
<!-- TkProjectCreateComponent -->
<g id="node2" class="node">
<title>TkProjectCreateComponent</title>
<polygon fill="#ffffb3" stroke="#000000" points="742.5702,-122 569.4298,-122 569.4298,-86 742.5702,-86 742.5702,-122"/>
<text text-anchor="middle" x="656" y="-99.8" font-family="Times,serif" font-size="14.00" fill="#000000">TkProjectCreateComponent</text>
</g>
<!-- TkProjectCreateComponent&#45;&gt;TkProjectsModule -->
<g id="edge2" class="edge">
<title>TkProjectCreateComponent&#45;&gt;TkProjectsModule</title>
<path fill="none" stroke="#000000" d="M685.2617,-122.0091C685.2617,-138.0494 685.2617,-159 685.2617,-159 685.2617,-159 533.1472,-159 533.1472,-159"/>
<polygon fill="#000000" stroke="#000000" points="533.1473,-155.5001 523.1472,-159 533.1472,-162.5001 533.1473,-155.5001"/>
</g>
<!-- TkProjectDetailsComponent -->
<g id="node3" class="node">
<title>TkProjectDetailsComponent</title>
<polygon fill="#ffffb3" stroke="#000000" points="551.1909,-122 374.8091,-122 374.8091,-86 551.1909,-86 551.1909,-122"/>
<text text-anchor="middle" x="463" y="-99.8" font-family="Times,serif" font-size="14.00" fill="#000000">TkProjectDetailsComponent</text>
</g>
<!-- TkProjectDetailsComponent&#45;&gt;TkProjectsModule -->
<g id="edge3" class="edge">
<title>TkProjectDetailsComponent&#45;&gt;TkProjectsModule</title>
<path fill="none" stroke="#000000" d="M463,-122.1061C463,-122.1061 463,-140.991 463,-140.991"/>
<polygon fill="#000000" stroke="#000000" points="459.5001,-140.9909 463,-150.991 466.5001,-140.991 459.5001,-140.9909"/>
</g>
<!-- TkProjectsComponent -->
<g id="node4" class="node">
<title>TkProjectsComponent</title>
<polygon fill="#ffffb3" stroke="#000000" points="356.9832,-122 215.0168,-122 215.0168,-86 356.9832,-86 356.9832,-122"/>
<text text-anchor="middle" x="286" y="-99.8" font-family="Times,serif" font-size="14.00" fill="#000000">TkProjectsComponent</text>
</g>
<!-- TkProjectsComponent&#45;&gt;TkProjectsModule -->
<g id="edge4" class="edge">
<title>TkProjectsComponent&#45;&gt;TkProjectsModule</title>
<path fill="none" stroke="#000000" d="M308.1639,-122.0091C308.1639,-138.0494 308.1639,-159 308.1639,-159 308.1639,-159 392.6929,-159 392.6929,-159"/>
<polygon fill="#000000" stroke="#000000" points="392.693,-162.5001 402.6929,-159 392.6929,-155.5001 392.693,-162.5001"/>
</g>
<!-- TkProjectsListComponent -->
<g id="node5" class="node">
<title>TkProjectsListComponent</title>
<polygon fill="#ffffb3" stroke="#000000" points="196.7618,-122 33.2382,-122 33.2382,-86 196.7618,-86 196.7618,-122"/>
<text text-anchor="middle" x="115" y="-99.8" font-family="Times,serif" font-size="14.00" fill="#000000">TkProjectsListComponent</text>
</g>
<!-- TkProjectsListComponent&#45;&gt;TkProjectsModule -->
<g id="edge5" class="edge">
<title>TkProjectsListComponent&#45;&gt;TkProjectsModule</title>
<path fill="none" stroke="#000000" d="M138.7936,-122.2667C138.7936,-140.5552 138.7936,-166 138.7936,-166 138.7936,-166 392.7791,-166 392.7791,-166"/>
<polygon fill="#000000" stroke="#000000" points="392.7791,-169.5001 402.7791,-166 392.779,-162.5001 392.7791,-169.5001"/>
</g>
<!-- TkProjectBriefComponent  -->
<g id="node7" class="node">
<title>TkProjectBriefComponent </title>
<polygon fill="#fb8072" stroke="#000000" points="934.3017,-252 765.6983,-252 765.6983,-216 934.3017,-216 934.3017,-252"/>
<text text-anchor="middle" x="850" y="-229.8" font-family="Times,serif" font-size="14.00" fill="#000000">TkProjectBriefComponent </text>
</g>
<!-- TkProjectsModule&#45;&gt;TkProjectBriefComponent  -->
<g id="edge6" class="edge">
<title>TkProjectsModule&#45;&gt;TkProjectBriefComponent </title>
<path fill="none" stroke="#000000" stroke-dasharray="5,2" d="M523.382,-173C624.9361,-173 818.9497,-173 818.9497,-173 818.9497,-173 818.9497,-205.698 818.9497,-205.698"/>
<polygon fill="#000000" stroke="#000000" points="815.4498,-205.698 818.9497,-215.698 822.4498,-205.698 815.4498,-205.698"/>
</g>
<!-- TkProjectCreateComponent  -->
<g id="node8" class="node">
<title>TkProjectCreateComponent </title>
<polygon fill="#fb8072" stroke="#000000" points="747.0707,-252 570.9293,-252 570.9293,-216 747.0707,-216 747.0707,-252"/>
<text text-anchor="middle" x="659" y="-229.8" font-family="Times,serif" font-size="14.00" fill="#000000">TkProjectCreateComponent </text>
</g>
<!-- TkProjectsModule&#45;&gt;TkProjectCreateComponent  -->
<g id="edge7" class="edge">
<title>TkProjectsModule&#45;&gt;TkProjectCreateComponent </title>
<path fill="none" stroke="#000000" stroke-dasharray="5,2" d="M523.4987,-180C570.5863,-180 627.9883,-180 627.9883,-180 627.9883,-180 627.9883,-205.7181 627.9883,-205.7181"/>
<polygon fill="#000000" stroke="#000000" points="624.4884,-205.718 627.9883,-215.7181 631.4884,-205.7181 624.4884,-205.718"/>
</g>
<!-- TkProjectDetailsComponent  -->
<g id="node9" class="node">
<title>TkProjectDetailsComponent </title>
<polygon fill="#fb8072" stroke="#000000" points="552.6911,-252 373.3089,-252 373.3089,-216 552.6911,-216 552.6911,-252"/>
<text text-anchor="middle" x="463" y="-229.8" font-family="Times,serif" font-size="14.00" fill="#000000">TkProjectDetailsComponent </text>
</g>
<!-- TkProjectsModule&#45;&gt;TkProjectDetailsComponent  -->
<g id="edge8" class="edge">
<title>TkProjectsModule&#45;&gt;TkProjectDetailsComponent </title>
<path fill="none" stroke="#000000" stroke-dasharray="5,2" d="M463,-187.1061C463,-187.1061 463,-205.991 463,-205.991"/>
<polygon fill="#000000" stroke="#000000" points="459.5001,-205.9909 463,-215.991 466.5001,-205.991 459.5001,-205.9909"/>
</g>
<!-- TkProjectsComponent  -->
<g id="node10" class="node">
<title>TkProjectsComponent </title>
<polygon fill="#fb8072" stroke="#000000" points="354.984,-252 209.016,-252 209.016,-216 354.984,-216 354.984,-252"/>
<text text-anchor="middle" x="282" y="-229.8" font-family="Times,serif" font-size="14.00" fill="#000000">TkProjectsComponent </text>
</g>
<!-- TkProjectsModule&#45;&gt;TkProjectsComponent  -->
<g id="edge9" class="edge">
<title>TkProjectsModule&#45;&gt;TkProjectsComponent </title>
<path fill="none" stroke="#000000" stroke-dasharray="5,2" d="M402.842,-180C343.4922,-180 261.5861,-180 261.5861,-180 261.5861,-180 261.5861,-205.7181 261.5861,-205.7181"/>
<polygon fill="#000000" stroke="#000000" points="258.0862,-205.718 261.5861,-215.7181 265.0862,-205.7181 258.0862,-205.718"/>
</g>
<!-- TkProjectsListComponent  -->
<g id="node11" class="node">
<title>TkProjectsListComponent </title>
<polygon fill="#fb8072" stroke="#000000" points="191.7618,-252 24.2382,-252 24.2382,-216 191.7618,-216 191.7618,-252"/>
<text text-anchor="middle" x="108" y="-229.8" font-family="Times,serif" font-size="14.00" fill="#000000">TkProjectsListComponent </text>
</g>
<!-- TkProjectsModule&#45;&gt;TkProjectsListComponent  -->
<g id="edge10" class="edge">
<title>TkProjectsModule&#45;&gt;TkProjectsListComponent </title>
<path fill="none" stroke="#000000" stroke-dasharray="5,2" d="M402.8394,-173C296.3897,-173 85.9564,-173 85.9564,-173 85.9564,-173 85.9564,-205.698 85.9564,-205.698"/>
<polygon fill="#000000" stroke="#000000" points="82.4565,-205.698 85.9564,-215.698 89.4565,-205.698 82.4565,-205.698"/>
</g>
</g>
</svg>
