<?xml version="1.0" encoding="UTF-8" standalone="no"?>
<!DOCTYPE svg PUBLIC "-//W3C//DTD SVG 1.1//EN"
 "http://www.w3.org/Graphics/SVG/1.1/DTD/svg11.dtd">
<!-- Generated by graphviz version 2.40.1 (20161225.0304)
 -->
<!-- Title: dependencies Pages: 1 -->
<svg width="940pt" height="284pt"
 viewBox="0.00 0.00 940.00 284.00" xmlns="http://www.w3.org/2000/svg" xmlns:xlink="http://www.w3.org/1999/xlink">
<g id="graph0" class="graph" transform="scale(1 1) rotate(0) translate(4 280)">
<title>dependencies</title>
<polygon fill="#ffffff" stroke="transparent" points="-4,4 -4,-280 936,-280 936,4 -4,4"/>
<text text-anchor="start" x="445.0091" y="-42.4" font-family="sans-serif" font-weight="bold" font-size="14.00" fill="#000000">Legend</text>
<polygon fill="#ffffb3" stroke="transparent" points="232,-10 232,-30 252,-30 252,-10 232,-10"/>
<text text-anchor="start" x="255.629" y="-15.4" font-family="sans-serif" font-size="14.00" fill="#000000"> &#160;Declarations</text>
<polygon fill="#8dd3c7" stroke="transparent" points="345,-10 345,-30 365,-30 365,-10 345,-10"/>
<text text-anchor="start" x="368.7251" y="-15.4" font-family="sans-serif" font-size="14.00" fill="#000000"> &#160;Module</text>
<polygon fill="#80b1d3" stroke="transparent" points="431,-10 431,-30 451,-30 451,-10 431,-10"/>
<text text-anchor="start" x="454.7812" y="-15.4" font-family="sans-serif" font-size="14.00" fill="#000000"> &#160;Bootstrap</text>
<polygon fill="#fdb462" stroke="transparent" points="528,-10 528,-30 548,-30 548,-10 528,-10"/>
<text text-anchor="start" x="551.6732" y="-15.4" font-family="sans-serif" font-size="14.00" fill="#000000"> &#160;Providers</text>
<polygon fill="#fb8072" stroke="transparent" points="624,-10 624,-30 644,-30 644,-10 624,-10"/>
<text text-anchor="start" x="647.7258" y="-15.4" font-family="sans-serif" font-size="14.00" fill="#000000"> &#160;Exports</text>
<g id="clust1" class="cluster">
<title>cluster_TkLayoutModule</title>
<polygon fill="none" stroke="#000000" stroke-dasharray="1,5" points="8,-70 8,-268 924,-268 924,-70 8,-70"/>
</g>
<g id="clust2" class="cluster">
<title>cluster_TkLayoutModule_declarations</title>
<polygon fill="none" stroke="#000000" points="306,-78 306,-130 916,-130 916,-78 306,-78"/>
</g>
<g id="clust7" class="cluster">
<title>cluster_TkLayoutModule_imports</title>
<polygon fill="none" stroke="#000000" points="16,-78 16,-130 298,-130 298,-78 16,-78"/>
</g>
<g id="clust8" class="cluster">
<title>cluster_TkLayoutModule_exports</title>
<polygon fill="none" stroke="#000000" points="143,-208 143,-260 767,-260 767,-208 143,-208"/>
</g>
<!-- TkFooterComponent -->
<g id="node1" class="node">
<title>TkFooterComponent</title>
<polygon fill="#ffffb3" stroke="#000000" points="907.9341,-122 774.0659,-122 774.0659,-86 907.9341,-86 907.9341,-122"/>
<text text-anchor="middle" x="841" y="-99.8" font-family="Times,serif" font-size="14.00" fill="#000000">TkFooterComponent</text>
</g>
<!-- TkLayoutModule -->
<g id="node5" class="node">
<title>TkLayoutModule</title>
<polygon fill="#8dd3c7" stroke="#000000" points="513.2605,-187 510.2605,-191 489.2605,-191 486.2605,-187 398.7395,-187 398.7395,-151 513.2605,-151 513.2605,-187"/>
<text text-anchor="middle" x="456" y="-164.8" font-family="Times,serif" font-size="14.00" fill="#000000">TkLayoutModule</text>
</g>
<!-- TkFooterComponent&#45;&gt;TkLayoutModule -->
<g id="edge1" class="edge">
<title>TkFooterComponent&#45;&gt;TkLayoutModule</title>
<path fill="none" stroke="#000000" d="M841,-122.1061C841,-141.3391 841,-169 841,-169 841,-169 523.6384,-169 523.6384,-169"/>
<polygon fill="#000000" stroke="#000000" points="523.6384,-165.5001 513.6384,-169 523.6384,-172.5001 523.6384,-165.5001"/>
</g>
<!-- TkHeaderComponent -->
<g id="node2" class="node">
<title>TkHeaderComponent</title>
<polygon fill="#ffffb3" stroke="#000000" points="756.7963,-122 619.2037,-122 619.2037,-86 756.7963,-86 756.7963,-122"/>
<text text-anchor="middle" x="688" y="-99.8" font-family="Times,serif" font-size="14.00" fill="#000000">TkHeaderComponent</text>
</g>
<!-- TkHeaderComponent&#45;&gt;TkLayoutModule -->
<g id="edge2" class="edge">
<title>TkHeaderComponent&#45;&gt;TkLayoutModule</title>
<path fill="none" stroke="#000000" d="M711.9431,-122.027C711.9431,-138.3976 711.9431,-160 711.9431,-160 711.9431,-160 523.4386,-160 523.4386,-160"/>
<polygon fill="#000000" stroke="#000000" points="523.4387,-156.5001 513.4386,-160 523.4386,-163.5001 523.4387,-156.5001"/>
</g>
<!-- TkMenuComponent -->
<g id="node3" class="node">
<title>TkMenuComponent</title>
<polygon fill="#ffffb3" stroke="#000000" points="601.545,-122 472.455,-122 472.455,-86 601.545,-86 601.545,-122"/>
<text text-anchor="middle" x="537" y="-99.8" font-family="Times,serif" font-size="14.00" fill="#000000">TkMenuComponent</text>
</g>
<!-- TkMenuComponent&#45;&gt;TkLayoutModule -->
<g id="edge3" class="edge">
<title>TkMenuComponent&#45;&gt;TkLayoutModule</title>
<path fill="none" stroke="#000000" d="M492.804,-122.1061C492.804,-122.1061 492.804,-140.991 492.804,-140.991"/>
<polygon fill="#000000" stroke="#000000" points="489.3041,-140.9909 492.804,-150.991 496.3041,-140.991 489.3041,-140.9909"/>
</g>
<!-- TkSidebarComponent -->
<g id="node4" class="node">
<title>TkSidebarComponent</title>
<polygon fill="#ffffb3" stroke="#000000" points="453.6484,-122 314.3516,-122 314.3516,-86 453.6484,-86 453.6484,-122"/>
<text text-anchor="middle" x="384" y="-99.8" font-family="Times,serif" font-size="14.00" fill="#000000">TkSidebarComponent</text>
</g>
<!-- TkSidebarComponent&#45;&gt;TkLayoutModule -->
<g id="edge4" class="edge">
<title>TkSidebarComponent&#45;&gt;TkLayoutModule</title>
<path fill="none" stroke="#000000" d="M426.222,-122.1061C426.222,-122.1061 426.222,-140.991 426.222,-140.991"/>
<polygon fill="#000000" stroke="#000000" points="422.722,-140.9909 426.222,-150.991 429.722,-140.991 422.722,-140.9909"/>
</g>
<!-- TkFooterComponent  -->
<g id="node8" class="node">
<title>TkFooterComponent </title>
<polygon fill="#fb8072" stroke="#000000" points="759.4334,-252 622.5666,-252 622.5666,-216 759.4334,-216 759.4334,-252"/>
<text text-anchor="middle" x="691" y="-229.8" font-family="Times,serif" font-size="14.00" fill="#000000">TkFooterComponent </text>
</g>
<!-- TkLayoutModule&#45;&gt;TkFooterComponent  -->
<g id="edge7" class="edge">
<title>TkLayoutModule&#45;&gt;TkFooterComponent </title>
<path fill="none" stroke="#000000" stroke-dasharray="5,2" d="M513.4427,-178C575.9945,-178 667.2382,-178 667.2382,-178 667.2382,-178 667.2382,-205.973 667.2382,-205.973"/>
<polygon fill="#000000" stroke="#000000" points="663.7383,-205.973 667.2382,-215.973 670.7383,-205.973 663.7383,-205.973"/>
</g>
<!-- TkHeaderComponent  -->
<g id="node9" class="node">
<title>TkHeaderComponent </title>
<polygon fill="#fb8072" stroke="#000000" points="604.2961,-252 463.7039,-252 463.7039,-216 604.2961,-216 604.2961,-252"/>
<text text-anchor="middle" x="534" y="-229.8" font-family="Times,serif" font-size="14.00" fill="#000000">TkHeaderComponent </text>
</g>
<!-- TkLayoutModule&#45;&gt;TkHeaderComponent  -->
<g id="edge8" class="edge">
<title>TkLayoutModule&#45;&gt;TkHeaderComponent </title>
<path fill="none" stroke="#000000" stroke-dasharray="5,2" d="M488.4911,-187.1061C488.4911,-187.1061 488.4911,-205.991 488.4911,-205.991"/>
<polygon fill="#000000" stroke="#000000" points="484.9911,-205.9909 488.4911,-215.991 491.9911,-205.991 484.9911,-205.9909"/>
</g>
<!-- TkMenuComponent  -->
<g id="node10" class="node">
<title>TkMenuComponent </title>
<polygon fill="#fb8072" stroke="#000000" points="445.5442,-252 312.4558,-252 312.4558,-216 445.5442,-216 445.5442,-252"/>
<text text-anchor="middle" x="379" y="-229.8" font-family="Times,serif" font-size="14.00" fill="#000000">TkMenuComponent </text>
</g>
<!-- TkLayoutModule&#45;&gt;TkMenuComponent  -->
<g id="edge9" class="edge">
<title>TkLayoutModule&#45;&gt;TkMenuComponent </title>
<path fill="none" stroke="#000000" stroke-dasharray="5,2" d="M422.071,-187.1061C422.071,-187.1061 422.071,-205.991 422.071,-205.991"/>
<polygon fill="#000000" stroke="#000000" points="418.5711,-205.9909 422.071,-215.991 425.5711,-205.991 418.5711,-205.9909"/>
</g>
<!-- TkSidebarComponent  -->
<g id="node11" class="node">
<title>TkSidebarComponent </title>
<polygon fill="#fb8072" stroke="#000000" points="294.6481,-252 151.3519,-252 151.3519,-216 294.6481,-216 294.6481,-252"/>
<text text-anchor="middle" x="223" y="-229.8" font-family="Times,serif" font-size="14.00" fill="#000000">TkSidebarComponent </text>
</g>
<!-- TkLayoutModule&#45;&gt;TkSidebarComponent  -->
<g id="edge10" class="edge">
<title>TkLayoutModule&#45;&gt;TkSidebarComponent </title>
<path fill="none" stroke="#000000" stroke-dasharray="5,2" d="M398.6246,-178C324.408,-178 204.5376,-178 204.5376,-178 204.5376,-178 204.5376,-205.973 204.5376,-205.973"/>
<polygon fill="#000000" stroke="#000000" points="201.0377,-205.973 204.5376,-215.973 208.0377,-205.973 201.0377,-205.973"/>
</g>
<!-- AppRoutingModule -->
<g id="node6" class="node">
<title>AppRoutingModule</title>
<polygon fill="#8dd3c7" stroke="#000000" points="290.2744,-122 287.2744,-126 266.2744,-126 263.2744,-122 161.7256,-122 161.7256,-86 290.2744,-86 290.2744,-122"/>
<text text-anchor="middle" x="226" y="-99.8" font-family="Times,serif" font-size="14.00" fill="#000000">AppRoutingModule</text>
</g>
<!-- AppRoutingModule&#45;&gt;TkLayoutModule -->
<g id="edge5" class="edge">
<title>AppRoutingModule&#45;&gt;TkLayoutModule</title>
<path fill="none" stroke="#000000" d="M247.4624,-122.027C247.4624,-138.3976 247.4624,-160 247.4624,-160 247.4624,-160 388.4641,-160 388.4641,-160"/>
<polygon fill="#000000" stroke="#000000" points="388.4642,-163.5001 398.4641,-160 388.4641,-156.5001 388.4642,-163.5001"/>
</g>
<!-- TkProjectsModule -->
<g id="node7" class="node">
<title>TkProjectsModule</title>
<polygon fill="#8dd3c7" stroke="#000000" points="144.2008,-122 141.2008,-126 120.2008,-126 117.2008,-122 23.7992,-122 23.7992,-86 144.2008,-86 144.2008,-122"/>
<text text-anchor="middle" x="84" y="-99.8" font-family="Times,serif" font-size="14.00" fill="#000000">TkProjectsModule</text>
</g>
<!-- TkProjectsModule&#45;&gt;TkLayoutModule -->
<g id="edge6" class="edge">
<title>TkProjectsModule&#45;&gt;TkLayoutModule</title>
<path fill="none" stroke="#000000" d="M84,-122.1061C84,-141.3391 84,-169 84,-169 84,-169 388.6902,-169 388.6902,-169"/>
<polygon fill="#000000" stroke="#000000" points="388.6903,-172.5001 398.6902,-169 388.6902,-165.5001 388.6903,-172.5001"/>
</g>
</g>
</svg>
