<?xml version="1.0" encoding="UTF-8" standalone="no"?>
<!DOCTYPE svg PUBLIC "-//W3C//DTD SVG 1.1//EN"
 "http://www.w3.org/Graphics/SVG/1.1/DTD/svg11.dtd">
<!-- Generated by graphviz version 2.40.1 (20161225.0304)
 -->
<!-- Title: dependencies Pages: 1 -->
<svg width="777pt" height="284pt"
 viewBox="0.00 0.00 777.00 284.00" xmlns="http://www.w3.org/2000/svg" xmlns:xlink="http://www.w3.org/1999/xlink">
<g id="graph0" class="graph" transform="scale(1 1) rotate(0) translate(4 280)">
<title>dependencies</title>
<polygon fill="#ffffff" stroke="transparent" points="-4,4 -4,-280 773,-280 773,4 -4,4"/>
<text text-anchor="start" x="363.5091" y="-42.4" font-family="sans-serif" font-weight="bold" font-size="14.00" fill="#000000">Legend</text>
<polygon fill="#ffffb3" stroke="transparent" points="150.5,-10 150.5,-30 170.5,-30 170.5,-10 150.5,-10"/>
<text text-anchor="start" x="174.129" y="-15.4" font-family="sans-serif" font-size="14.00" fill="#000000"> &#160;Declarations</text>
<polygon fill="#8dd3c7" stroke="transparent" points="263.5,-10 263.5,-30 283.5,-30 283.5,-10 263.5,-10"/>
<text text-anchor="start" x="287.2251" y="-15.4" font-family="sans-serif" font-size="14.00" fill="#000000"> &#160;Module</text>
<polygon fill="#80b1d3" stroke="transparent" points="349.5,-10 349.5,-30 369.5,-30 369.5,-10 349.5,-10"/>
<text text-anchor="start" x="373.2812" y="-15.4" font-family="sans-serif" font-size="14.00" fill="#000000"> &#160;Bootstrap</text>
<polygon fill="#fdb462" stroke="transparent" points="446.5,-10 446.5,-30 466.5,-30 466.5,-10 446.5,-10"/>
<text text-anchor="start" x="470.1732" y="-15.4" font-family="sans-serif" font-size="14.00" fill="#000000"> &#160;Providers</text>
<polygon fill="#fb8072" stroke="transparent" points="542.5,-10 542.5,-30 562.5,-30 562.5,-10 542.5,-10"/>
<text text-anchor="start" x="566.2258" y="-15.4" font-family="sans-serif" font-size="14.00" fill="#000000"> &#160;Exports</text>
<g id="clust1" class="cluster">
<title>cluster_AppTadkitModule</title>
<polygon fill="none" stroke="#000000" stroke-dasharray="1,5" points="8,-70 8,-268 761,-268 761,-70 8,-70"/>
</g>
<g id="clust2" class="cluster">
<title>cluster_AppTadkitModule_declarations</title>
<polygon fill="none" stroke="#000000" points="595,-78 595,-130 753,-130 753,-78 595,-78"/>
</g>
<g id="clust4" class="cluster">
<title>cluster_AppTadkitModule_imports</title>
<polygon fill="none" stroke="#000000" points="16,-78 16,-130 587,-130 587,-78 16,-78"/>
</g>
<g id="clust6" class="cluster">
<title>cluster_AppTadkitModule_bootstrap</title>
<polygon fill="none" stroke="#000000" points="294,-208 294,-260 456,-260 456,-208 294,-208"/>
</g>
<!-- AppTadkitComponent -->
<g id="node1" class="node">
<title>AppTadkitComponent</title>
<polygon fill="#ffffb3" stroke="#000000" points="744.9874,-122 603.0126,-122 603.0126,-86 744.9874,-86 744.9874,-122"/>
<text text-anchor="middle" x="674" y="-99.8" font-family="Times,serif" font-size="14.00" fill="#000000">AppTadkitComponent</text>
</g>
<!-- AppTadkitModule -->
<g id="node2" class="node">
<title>AppTadkitModule</title>
<polygon fill="#8dd3c7" stroke="#000000" points="435.205,-187 432.205,-191 411.205,-191 408.205,-187 314.795,-187 314.795,-151 435.205,-151 435.205,-187"/>
<text text-anchor="middle" x="375" y="-164.8" font-family="Times,serif" font-size="14.00" fill="#000000">AppTadkitModule</text>
</g>
<!-- AppTadkitComponent&#45;&gt;AppTadkitModule -->
<g id="edge1" class="edge">
<title>AppTadkitComponent&#45;&gt;AppTadkitModule</title>
<path fill="none" stroke="#000000" d="M674,-122.2843C674,-143.3211 674,-175 674,-175 674,-175 445.1474,-175 445.1474,-175"/>
<polygon fill="#000000" stroke="#000000" points="445.1475,-171.5001 435.1474,-175 445.1474,-178.5001 445.1475,-171.5001"/>
</g>
<!-- AppTadkitComponent  -->
<g id="node7" class="node">
<title>AppTadkitComponent </title>
<polygon fill="#80b1d3" stroke="#000000" points="447.9882,-252 302.0118,-252 302.0118,-216 447.9882,-216 447.9882,-252"/>
<text text-anchor="middle" x="375" y="-229.8" font-family="Times,serif" font-size="14.00" fill="#000000">AppTadkitComponent </text>
</g>
<!-- AppTadkitModule&#45;&gt;AppTadkitComponent  -->
<g id="edge6" class="edge">
<title>AppTadkitModule&#45;&gt;AppTadkitComponent </title>
<path fill="none" stroke="#000000" stroke-dasharray="1,5" d="M375,-187.1061C375,-187.1061 375,-205.991 375,-205.991"/>
<polygon fill="#000000" stroke="#000000" points="371.5001,-205.9909 375,-215.991 378.5001,-205.991 371.5001,-205.9909"/>
</g>
<!-- AppRoutingModule -->
<g id="node3" class="node">
<title>AppRoutingModule</title>
<polygon fill="#8dd3c7" stroke="#000000" points="579.2744,-122 576.2744,-126 555.2744,-126 552.2744,-122 450.7256,-122 450.7256,-86 579.2744,-86 579.2744,-122"/>
<text text-anchor="middle" x="515" y="-99.8" font-family="Times,serif" font-size="14.00" fill="#000000">AppRoutingModule</text>
</g>
<!-- AppRoutingModule&#45;&gt;AppTadkitModule -->
<g id="edge2" class="edge">
<title>AppRoutingModule&#45;&gt;AppTadkitModule</title>
<path fill="none" stroke="#000000" d="M515,-122.0225C515,-139.3734 515,-163 515,-163 515,-163 445.1851,-163 445.1851,-163"/>
<polygon fill="#000000" stroke="#000000" points="445.1851,-159.5001 435.1851,-163 445.1851,-166.5001 445.1851,-159.5001"/>
</g>
<!-- TkLayoutModule -->
<g id="node4" class="node">
<title>TkLayoutModule</title>
<polygon fill="#8dd3c7" stroke="#000000" points="432.2605,-122 429.2605,-126 408.2605,-126 405.2605,-122 317.7395,-122 317.7395,-86 432.2605,-86 432.2605,-122"/>
<text text-anchor="middle" x="375" y="-99.8" font-family="Times,serif" font-size="14.00" fill="#000000">TkLayoutModule</text>
</g>
<!-- TkLayoutModule&#45;&gt;AppTadkitModule -->
<g id="edge3" class="edge">
<title>TkLayoutModule&#45;&gt;AppTadkitModule</title>
<path fill="none" stroke="#000000" d="M375,-122.1061C375,-122.1061 375,-140.991 375,-140.991"/>
<polygon fill="#000000" stroke="#000000" points="371.5001,-140.9909 375,-150.991 378.5001,-140.991 371.5001,-140.9909"/>
</g>
<!-- TkProjectsModule -->
<g id="node5" class="node">
<title>TkProjectsModule</title>
<polygon fill="#8dd3c7" stroke="#000000" points="300.2008,-122 297.2008,-126 276.2008,-126 273.2008,-122 179.7992,-122 179.7992,-86 300.2008,-86 300.2008,-122"/>
<text text-anchor="middle" x="240" y="-99.8" font-family="Times,serif" font-size="14.00" fill="#000000">TkProjectsModule</text>
</g>
<!-- TkProjectsModule&#45;&gt;AppTadkitModule -->
<g id="edge4" class="edge">
<title>TkProjectsModule&#45;&gt;AppTadkitModule</title>
<path fill="none" stroke="#000000" d="M240,-122.0225C240,-139.3734 240,-163 240,-163 240,-163 304.6074,-163 304.6074,-163"/>
<polygon fill="#000000" stroke="#000000" points="304.6074,-166.5001 314.6074,-163 304.6074,-159.5001 304.6074,-166.5001"/>
</g>
<!-- TkWorkspaceModule -->
<g id="node6" class="node">
<title>TkWorkspaceModule</title>
<polygon fill="#8dd3c7" stroke="#000000" points="162.066,-122 159.066,-126 138.066,-126 135.066,-122 23.934,-122 23.934,-86 162.066,-86 162.066,-122"/>
<text text-anchor="middle" x="93" y="-99.8" font-family="Times,serif" font-size="14.00" fill="#000000">TkWorkspaceModule</text>
</g>
<!-- TkWorkspaceModule&#45;&gt;AppTadkitModule -->
<g id="edge5" class="edge">
<title>TkWorkspaceModule&#45;&gt;AppTadkitModule</title>
<path fill="none" stroke="#000000" d="M93,-122.2843C93,-143.3211 93,-175 93,-175 93,-175 304.8498,-175 304.8498,-175"/>
<polygon fill="#000000" stroke="#000000" points="304.8499,-178.5001 314.8498,-175 304.8498,-171.5001 304.8499,-178.5001"/>
</g>
</g>
</svg>
